<svg xmlns="http://www.w3.org/2000/svg" version="1.1" xmlns:xlink="http://www.w3.org/1999/xlink" width="512" height="512"><svg xmlns="http://www.w3.org/2000/svg" version="1.1" xmlns:xlink="http://www.w3.org/1999/xlink" width="512" height="512"><svg width="512" height="512" viewBox="0 0 512 512" fill="none" xmlns="http://www.w3.org/2000/svg">
<circle cx="256" cy="256" r="256" fill="#3D3D3D"></circle>
<path fill-rule="evenodd" clip-rule="evenodd" d="M396.075 56.8604C396.075 63.0428 394.123 68.771 390.799 73.4674L480.247 227.748C481.159 227.661 482.084 227.618 483.019 227.618C499.025 227.618 512 240.539 512 256.478C512 272.417 499.025 285.338 483.019 285.338C482.079 285.338 481.151 285.294 480.234 285.207L390.793 439.479C394.121 444.177 396.075 449.909 396.075 456.095C396.075 472.035 383.1 484.956 367.094 484.956C353.84 484.956 342.663 476.095 339.213 463.996C339.232 464.066 339.252 464.135 339.273 464.204H271.056L263.527 453.341H248.47L240.941 464.204L177.558 464.203C174.039 476.195 162.915 484.956 149.736 484.956C133.73 484.956 120.755 472.035 120.755 456.095C120.755 451.613 121.781 447.368 123.613 443.583L123.6 443.609L31.7619 285.207C30.8467 285.294 29.9192 285.338 28.9811 285.338C12.9753 285.338 0 272.417 0 256.478C0 240.539 12.9753 227.618 28.9811 227.618C29.9157 227.618 30.8399 227.661 31.7518 227.748L123.595 69.3352C121.774 65.5595 120.755 61.3285 120.755 56.8604C120.755 40.9212 133.73 28 149.736 28C162.907 28 174.026 36.7501 177.551 48.7314L240.941 48.7305L248.47 59.5934L263.527 59.5934L271.056 48.7305L339.279 48.7305C339.256 48.8067 339.234 48.883 339.213 48.9595C342.663 36.8613 353.84 28 367.094 28C383.1 28 396.075 40.9212 396.075 56.8604ZM381.585 56.8604C381.585 64.8299 375.097 71.2905 367.094 71.2905C359.091 71.2905 352.604 64.8299 352.604 56.8604C352.604 48.8908 359.091 42.4302 367.094 42.4302C375.097 42.4302 381.585 48.8908 381.585 56.8604ZM177.406 65.4688C173.728 77.2034 162.731 85.7207 149.736 85.7207C145.05 85.7207 140.624 84.6133 136.708 82.647L73.0732 192.407L68.487 192.407L44.8942 232.353V232.353C52.7663 237.513 57.9623 246.391 57.9623 256.478C57.9623 266.544 52.7874 275.406 44.9425 280.571L66.4498 316.985L71.0188 316.985L136.717 430.304C140.631 428.341 145.054 427.235 149.736 427.235C162.723 427.235 173.715 435.742 177.399 447.466H242.955L249.832 436.603L263.588 436.603L270.465 447.466L339.431 447.466C343.115 435.742 354.107 427.235 367.094 427.235C371.055 427.235 374.83 428.026 378.269 429.459C377.98 429.338 377.689 429.222 377.395 429.111L442.402 316.985H447.316L468.349 281.373C459.786 276.358 454.038 267.086 454.038 256.478C454.038 245.52 460.171 235.988 469.205 231.101C468.933 231.248 468.665 231.398 468.399 231.553L445.279 192.407H440.347L377.405 83.8408C374.201 85.0554 370.726 85.7207 367.094 85.7207C354.099 85.7207 343.102 77.2035 339.424 65.4688L270.465 65.4688L263.588 76.3317L249.832 76.3317L242.955 65.4688L177.406 65.4688ZM43.4717 256.478C43.4717 264.447 36.9841 270.908 28.9811 270.908C20.9782 270.908 14.4906 264.447 14.4906 256.478C14.4906 248.508 20.9782 242.048 28.9811 242.048C36.9841 242.048 43.4717 248.508 43.4717 256.478ZM149.736 470.526C157.739 470.526 164.226 464.065 164.226 456.095C164.226 448.126 157.739 441.665 149.736 441.665C141.733 441.665 135.245 448.126 135.245 456.095C135.245 464.065 141.733 470.526 149.736 470.526ZM367.094 470.526C375.097 470.526 381.585 464.065 381.585 456.095C381.585 448.126 375.097 441.665 367.094 441.665C359.091 441.665 352.604 448.126 352.604 456.095C352.604 464.065 359.091 470.526 367.094 470.526ZM483.019 270.908C491.022 270.908 497.509 264.447 497.509 256.478C497.509 248.508 491.022 242.048 483.019 242.048C475.016 242.048 468.528 248.508 468.528 256.478C468.528 264.447 475.016 270.908 483.019 270.908ZM164.226 56.8604C164.226 64.8299 157.739 71.2905 149.736 71.2905C141.733 71.2905 135.245 64.8299 135.245 56.8604C135.245 48.8908 141.733 42.4302 149.736 42.4302C157.739 42.4302 164.226 48.8908 164.226 56.8604Z" fill="white"></path>
<path d="M218.429 191.305L181 255.866L218.429 320.426H293.29L330.719 255.866L293.29 191.305H218.429ZM226.116 202.867H286.588L316.823 255.017L286.588 307.169H226.116L195.881 255.017L226.116 202.867Z" fill="white"></path>
<path d="M206.762 338.395H208.469L166.011 411.629L76.075 256.504H159.285L206.762 338.395ZM344.848 103.346C336.262 138.482 348.736 180.362 377.758 214.338C394.63 234.09 414.402 248.782 435.921 256.476L435.962 256.477C400.275 265.996 367.584 296.468 352.262 339.282C343.52 363.711 341.71 388.589 345.78 410.995L345.736 411.069L346.03 411.576H345.44L345.426 411.602L345.411 411.576H166.158L208.587 338.395H303.074L303.338 337.939L303.492 338.206C304.184 338.232 304.879 338.248 305.577 338.248C322.609 338.248 337.811 330.444 347.774 318.23V319.008L408.152 256.478L349.91 193.839C345.536 188.524 340.059 183.861 333.627 180.163C324.447 174.885 314.363 172.579 304.499 172.942L303.981 173.836L303.074 172.272H207.249L166.132 101.354H346.004L344.848 103.346ZM207.211 172.272H206.762L158.606 255.334L159.255 256.452H76.1433L166.079 101.327L207.211 172.272Z" fill="white"></path>
</svg></svg><style>@media (prefers-color-scheme: light) { :root { filter: none; } }
@media (prefers-color-scheme: dark) { :root { filter: none; } }
</style></svg>