<svg fill="none" height="100%" width="100%" viewBox="0 0 960 857" xmlns:xlink="http://www.w3.org/1999/xlink" xmlns="http://www.w3.org/2000/svg"><g id="i0"><g transform="translate(476.631,428.5)"><g transform="rotate(0)"><animateTransform repeatCount="indefinite" type="rotate" attributeName="transform" dur="5s" begin="0s" calcMode="spline" values="0; 360; 360" keyTimes="0; 0.506667; 1" keySplines="0 0 1 1; 0 0 1 1" fill="freeze" /><g transform="scale(0.914,0.914)"><animateTransform repeatCount="indefinite" type="scale" attributeName="transform" dur="5s" begin="0s" calcMode="spline" values="0.914 0.914; 0.883 0.883; 0.883 0.883; 0.98 0.98; 0.98 0.98" keyTimes="0; 0.506666; 0.546666; 0.586667; 1" keySplines="0 0 1 1; 0 0 1 1; 0 0 1 1; 0 0 1 1" fill="freeze" /><g transform="translate(-476.324,-428.39)"><g id="i1" transform="matrix(1,0,0,1,0,0)"><path fill="#ffffff" d="M307.92,54.11C307.99,65.11,301.41,75.07,291.26,79.33C281.11,83.59,269.41,81.31,261.6,73.55C253.79,65.79,251.44,54.09,255.64,43.92C259.84,33.75,269.76,27.11,280.76,27.11C295.71,27.08,307.86,39.16,307.92,54.11C307.92,54.11,307.92,54.11,307.92,54.11ZM905.66,455.45C920.59,455.39,932.65,443.24,932.61,428.31C932.57,413.38,920.44,401.31,905.51,401.33C890.58,401.35,878.48,413.47,878.49,428.4C878.51,435.59,881.37,442.48,886.47,447.55C891.57,452.62,898.47,455.47,905.66,455.45C905.66,455.45,905.66,455.45,905.66,455.45ZM688.3,829.74C703.23,829.68,715.29,817.54,715.25,802.61C715.21,787.68,703.08,775.6,688.15,775.62C673.22,775.64,661.13,787.75,661.13,802.68C661.16,817.65,673.33,829.77,688.3,829.74C688.3,829.74,688.3,829.74,688.3,829.74ZM280.76,829.74C295.69,829.68,307.75,817.54,307.71,802.61C307.67,787.68,295.54,775.6,280.61,775.62C265.68,775.64,253.59,787.75,253.59,802.68C253.6,809.87,256.47,816.76,261.57,821.84C266.67,826.92,273.57,829.76,280.76,829.74C280.76,829.74,280.76,829.74,280.76,829.74ZM81.51,428.4C81.55,439.4,74.96,449.34,64.81,453.58C54.66,457.82,42.96,455.52,35.17,447.76C27.38,440,25.03,428.31,29.23,418.14C33.43,407.97,43.34,401.34,54.34,401.34C61.53,401.32,68.43,404.16,73.53,409.24C78.63,414.32,81.5,421.21,81.51,428.4C81.51,428.4,81.51,428.4,81.51,428.4ZM332.64,70.25C327.82,85.43,316.59,97.74,301.91,103.94C287.23,110.14,270.57,109.6,256.33,102.46C256.33,102.46,137,308.26,137,308.26C137,308.26,128.4,308.26,128.4,308.26C128.4,308.26,84.17,383.16,84.17,383.16C99.44,393.12,108.66,410.11,108.68,428.34C108.7,446.57,99.51,463.58,84.26,473.57C84.26,473.57,124.58,541.85,124.58,541.85C124.58,541.85,133.15,541.85,133.15,541.85C133.15,541.85,256.34,754.32,256.34,754.32C270.58,747.2,287.22,746.66,301.89,752.85C316.56,759.04,327.78,771.33,332.62,786.5C332.62,786.5,455.54,786.5,455.54,786.5C455.54,786.5,468.43,766.13,468.43,766.13C468.43,766.13,494.23,766.13,494.23,766.13C494.23,766.13,507.12,786.5,507.12,786.5C507.12,786.5,636.43,786.5,636.43,786.5C641.07,771.97,651.59,760.05,665.43,753.63C679.27,747.21,695.16,746.89,709.25,752.73C708.71,752.51,708.17,752.29,707.61,752.08C707.61,752.08,829.5,541.85,829.5,541.85C829.5,541.85,838.72,541.85,838.72,541.85C838.72,541.85,878.16,475.08,878.16,475.08C861.24,465.25,850.97,447.04,851.3,427.48C851.63,407.92,862.52,390.06,879.76,380.81C879.76,380.81,878.25,381.66,878.25,381.66C878.25,381.66,834.9,308.26,834.9,308.26C834.9,308.26,825.65,308.26,825.65,308.26C825.65,308.26,707.65,104.7,707.65,104.7C693.66,110,678.11,109.31,664.64,102.79C651.17,96.27,640.97,84.51,636.44,70.25C636.44,70.25,507.12,70.25,507.12,70.25C507.12,70.25,494.23,90.62,494.23,90.62C494.23,90.62,468.43,90.62,468.43,90.62C468.43,90.62,455.54,70.25,455.54,70.25C455.54,70.25,332.64,70.25,332.64,70.25ZM715.47,54.11C715.54,65.11,708.97,75.07,698.82,79.33C688.67,83.59,676.96,81.31,669.15,73.55C661.34,65.79,658.98,54.09,663.18,43.92C667.38,33.75,677.3,27.11,688.3,27.11C703.25,27.08,715.41,39.16,715.47,54.11C715.47,54.11,715.47,54.11,715.47,54.11ZM742.64,54.11C742.66,65.27,739.2,76.15,732.75,85.25C732.75,85.25,900.46,374.53,900.46,374.53C902.17,374.36,903.91,374.28,905.66,374.28C925.17,374.01,943.31,384.27,953.14,401.12C962.97,417.97,962.97,438.82,953.14,455.67C943.31,472.52,925.17,482.78,905.66,482.51C903.9,482.51,902.16,482.43,900.44,482.26C900.44,482.26,732.74,771.52,732.74,771.52C744.42,788.06,745.88,809.74,736.52,827.7C727.16,845.66,708.55,856.89,688.3,856.79C664.05,856.83,642.71,840.79,636,817.49C636,817.49,636.12,817.88,636.12,817.88C636.12,817.88,508.23,817.88,508.23,817.88C508.23,817.88,494.11,797.52,494.11,797.52C494.11,797.52,465.88,797.52,465.88,797.52C465.88,797.52,451.77,817.88,451.77,817.88C451.77,817.88,332.92,817.88,332.92,817.88C325.25,843.72,299.8,860.05,273.11,856.24C246.42,852.43,226.55,829.64,226.41,802.68C226.4,794.56,228.23,786.53,231.77,779.22C231.77,779.22,231.77,779.22,231.77,779.22C231.77,779.22,59.57,482.22,59.57,482.22C57.86,482.39,56.12,482.47,54.36,482.47C34.85,482.74,16.71,472.48,6.88,455.63C-2.95,438.78,-2.95,417.93,6.88,401.08C16.71,384.23,34.85,373.97,54.36,374.24C56.11,374.24,57.84,374.32,59.55,374.49C59.55,374.49,231.76,77.49,231.76,77.49C223.69,60.69,224.84,40.92,234.8,25.17C244.76,9.42,262.13,-0.09,280.76,-0.01C304.83,-0.04,326.06,15.78,332.91,38.86C332.91,38.86,451.77,38.86,451.77,38.86C451.77,38.86,465.88,59.23,465.88,59.23C465.88,59.23,494.11,59.23,494.11,59.23C494.11,59.23,508.23,38.86,508.23,38.86C508.23,38.86,636.15,38.86,636.15,38.86C636.15,39,636.07,39.15,636.02,39.29C643.53,13.32,668.97,-3.19,695.75,0.53C722.53,4.25,742.5,27.08,742.64,54.11C742.64,54.11,742.64,54.11,742.64,54.11Z"><animate repeatCount="indefinite" attributeName="fill-opacity" dur="5s" begin="0s" fill="freeze" values="1; 1; 0; 0" keyTimes="0; 0.606667; 0.64; 1" keySplines="0 0 1 1; 0 0 1 1; 0 0 1 1" calcMode="spline" /></path></g></g></g></g></g></g><g id="i2"><g transform="translate(479.753,427.435)"><animateTransform repeatCount="indefinite" type="translate" attributeName="transform" dur="5s" begin="0s" calcMode="spline" values="479.753 427.435; 479.753 427.435; 479.753 427.435" keyTimes="0; 0.866667; 1" keySplines="0 0 1 1; 0 0 1 1" fill="freeze" /><g transform="rotate(0)"><animateTransform repeatCount="indefinite" type="rotate" attributeName="transform" dur="5s" begin="0s" calcMode="spline" values="0; 45; 90; 30; -75; -45; 180; 180; 270; 270" keyTimes="0; 0.086667; 0.166667; 0.2; 0.306667; 0.42; 0.506667; 0.866666; 0.986667; 1" keySplines="0 0 1 1; 0 0 1 1; 0 0 1 1; 0 0 1 1; 0 0 1 1; 0 0 1 1; 0 0 1 1; 0 0 1 1; 0 0 1 1" fill="freeze" /><g transform="scale(0.914,0.914)"><animateTransform repeatCount="indefinite" type="scale" attributeName="transform" dur="5s" begin="0s" calcMode="spline" values="0.914 0.914; 0.914 0.914; 2.927 2.927; 2.927 2.927" keyTimes="0; 0.866666; 0.986667; 1" keySplines="0 0 1 1; 0 0 1 1; 0 0 1 1" fill="freeze" /><g transform="translate(-479.74,-427.225)"><g id="i3" transform="matrix(1,0,0,1,0,0)"><path fill="#ffffff" d="M424,327.88C424,327.88,537.35,327.88,537.35,327.88C537.35,327.88,594,425.66,594,425.66C594,425.66,537.31,523.44,537.31,523.44C537.31,523.44,424,523.44,424,523.44C424,523.44,367.31,425.66,367.31,425.66C367.31,425.66,424,327.88,424,327.88ZM409.55,306.2C409.55,306.2,339.38,427.25,339.38,427.25C339.38,427.25,409.55,548.25,409.55,548.25C409.55,548.25,549.92,548.25,549.92,548.25C549.92,548.25,620.1,427.25,620.1,427.25C620.1,427.25,549.92,306.25,549.92,306.25C549.92,306.25,409.55,306.2,409.55,306.2Z"><animate repeatCount="indefinite" attributeName="fill-opacity" dur="5s" begin="0s" fill="freeze" values="1; 1; 0; 0" keyTimes="0; 0.866667; 0.986667; 1" keySplines="0 0 1 1; 0 0 1 1; 0 0 1 1" calcMode="spline" /></path></g></g></g></g></g></g><g id="i4"><g transform="translate(344.682,222.997)"><animateTransform repeatCount="indefinite" type="translate" attributeName="transform" dur="5s" begin="0s" calcMode="spline" values="344.682 222.997; 344.682 222.997; 481.759 222.508; 481.759 222.508; 481.759 221.508; 481.759 154.508; 481.759 154.508" keyTimes="0; 0.1; 0.193334; 0.506667; 0.626667; 0.673333; 1" keySplines="0 0 1 1; 0 0 1 1; 0 0 1 1; 0 0 1 1; 0 0 1 1; 0 0 1 1" fill="freeze" /><g transform="rotate(0)"><animateTransform repeatCount="indefinite" type="rotate" attributeName="transform" dur="5s" begin="0s" calcMode="spline" values="0; 0; 0; 0; 0; 0" keyTimes="0; 0.193333; 0.506667; 0.626667; 0.673333; 1" keySplines="0 0 1 1; 0 0 1 1; 0 0 1 1; 0 0 1 1; 0 0 1 1" fill="freeze" /><g transform="scale(0.205,0.914)"><animateTransform repeatCount="indefinite" type="scale" attributeName="transform" dur="5s" begin="0s" calcMode="spline" values="0.205 0.914; 0.205 0.914; 0.914 0.914; 0.914 0.914; 0.914 0.914; 1.017 1.017; 1.017 1.017" keyTimes="0; 0.1; 0.193334; 0.506667; 0.626667; 0.673333; 1" keySplines="0 0 1 1; 0 0 1 1; 0 0 1 1; 0 0 1 1; 0 0 1 1; 0 0 1 1" fill="freeze" /><g transform="translate(-481.935,-202.97)"><g id="i5" transform="matrix(1,0,0,1,0,-1)"><path fill="#ffffff" fill-opacity="0" d="M571.41,269.3C571.41,269.3,392.15,269.53,392.15,269.53C392.15,269.53,315.35,136.41,315.35,136.41C315.35,136.41,648.52,136.41,648.52,136.41C648.52,136.41,571.41,269.3,571.41,269.3Z"><animate repeatCount="indefinite" attributeName="fill-opacity" dur="5s" begin="0s" fill="freeze" values="0; 0; 1; 1; 1; 1; 0; 0" keyTimes="0; 0.1; 0.193334; 0.506667; 0.626666; 0.673333; 0.72; 1" keySplines="0 0 1 1; 0 0 1 1; 0 0 1 1; 0 0 1 1; 0 0 1 1; 0 0 1 1; 0 0 1 1" calcMode="spline" /></path></g></g></g></g></g></g><g id="i6"><g transform="translate(131.611,484.178)"><animateTransform repeatCount="indefinite" type="translate" attributeName="transform" dur="5s" begin="0s" calcMode="spline" values="131.611 484.178; 283.118 560.469; 283.118 560.469; 283.118 560.469; 230.827 548.401; 230.827 548.401" keyTimes="0; 0.1; 0.506667; 0.72; 0.76; 1" keySplines="0 0 1 1; 0 0 1 1; 0 0 1 1; 0 0 1 1; 0 0 1 1" fill="freeze" /><g transform="rotate(0)"><animateTransform repeatCount="indefinite" type="rotate" attributeName="transform" dur="5s" begin="0s" calcMode="spline" values="0; 0; 0; 0; 0; 0" keyTimes="0; 0.1; 0.193334; 0.506667; 0.72; 1" keySplines="0 0 1 1; 0 0 1 1; 0 0 1 1; 0 0 1 1; 0 0 1 1" fill="freeze" /><g transform="scale(0.314,0.314)"><animateTransform repeatCount="indefinite" type="scale" attributeName="transform" dur="5s" begin="0s" calcMode="spline" values="0.314 0.314; 0.914 0.914; 0.914 0.914; 0.914 0.914; 0.914 0.914; 1.108 1.108; 1.108 1.108" keyTimes="0; 0.1; 0.193333; 0.506667; 0.72; 0.76; 1" keySplines="0 0 1 1; 0 0 1 1; 0 0 1 1; 0 0 1 1; 0 0 1 1; 0 0 1 1" fill="freeze" /><g transform="translate(-264.56,-572.805)"><g id="i7" transform="matrix(1,0,0,1,0,0)"><path fill="#ffffff" fill-opacity="0" d="M296.81,429.68C296.81,429.68,385.73,582.68,385.73,582.68C385.73,582.68,308.85,716,308.85,716C308.85,716,143.39,429.61,143.39,429.61C143.39,429.61,296.81,429.68,296.81,429.68Z"><animate repeatCount="indefinite" attributeName="fill-opacity" dur="5s" begin="0s" fill="freeze" values="0; 1; 1; 1; 1; 0; 0" keyTimes="0; 0.1; 0.193334; 0.506666; 0.76; 0.8; 1" keySplines="0 0 1 1; 0 0 1 1; 0 0 1 1; 0 0 1 1; 0 0 1 1; 0 0 1 1" calcMode="spline" /></path></g></g></g></g></g></g><g id="i8"><animate repeatCount="indefinite" attributeName="opacity" dur="5s" begin="0s" fill="freeze" values="1; 1; 1; 0; 0" keyTimes="0; 0.76; 0.806667; 0.853333; 1" keySplines="0 0 1 1; 0 0 1 1; 0 0 1 1; 0 0 1 1" calcMode="spline" /><g transform="translate(344.598,634.108)"><animateTransform repeatCount="indefinite" type="translate" attributeName="transform" dur="5s" begin="0s" calcMode="spline" values="344.598 634.108; 344.598 634.108; 481.384 633.62; 481.384 633.62; 481.384 633.62; 480 708.035; 480 708.035" keyTimes="0; 0.1; 0.193333; 0.506667; 0.76; 0.806667; 1" keySplines="0 0 1 1; 0 0 1 1; 0 0 1 1; 0 0 1 1; 0 0 1 1; 0 0 1 1" fill="freeze" /><g transform="rotate(0)"><animateTransform repeatCount="indefinite" type="rotate" attributeName="transform" dur="5s" begin="0s" calcMode="spline" values="0; 0; 0; 0; 0" keyTimes="0; 0.193333; 0.506667; 0.76; 1" keySplines="0 0 1 1; 0 0 1 1; 0 0 1 1; 0 0 1 1" fill="freeze" /><g transform="scale(0.205,0.914)"><animateTransform repeatCount="indefinite" type="scale" attributeName="transform" dur="5s" begin="0s" calcMode="spline" values="0.205 0.914; 0.205 0.914; 0.914 0.914; 0.914 0.914; 0.914 0.914; 1.249 1.249; 1.249 1.249" keyTimes="0; 0.1; 0.193333; 0.506667; 0.76; 0.806667; 1" keySplines="0 0 1 1; 0 0 1 1; 0 0 1 1; 0 0 1 1; 0 0 1 1; 0 0 1 1" fill="freeze" /><g transform="translate(-481.525,-652.855)"><g id="i9" transform="matrix(1,0,0,1,0,0)"><path fill="#ffffff" fill-opacity="0" d="M648.05,719.3C648.05,719.3,315,719.3,315,719.3C315,719.3,391.7,586.41,391.7,586.41C391.7,586.41,571.17,586.41,571.17,586.41C571.17,586.41,648.05,719.3,648.05,719.3Z"><animate repeatCount="indefinite" attributeName="fill-opacity" dur="5s" begin="0s" fill="freeze" values="0; 0; 1; 1; 1" keyTimes="0; 0.1; 0.193333; 0.506667; 1" keySplines="0 0 1 1; 0 0 1 1; 0 0 1 1; 0 0 1 1" calcMode="spline" /></path></g></g></g></g></g></g><g id="i10"><g transform="translate(120.568,375.714)"><animateTransform repeatCount="indefinite" type="translate" attributeName="transform" dur="5s" begin="0s" calcMode="spline" values="120.568 375.714; 283.895 294.05; 283.895 294.05; 283.895 294.05; 239.648 241.758; 239.648 241.758" keyTimes="0; 0.1; 0.506667; 0.673333; 0.72; 1" keySplines="0 0 1 1; 0 0 1 1; 0 0 1 1; 0 0 1 1; 0 0 1 1" fill="freeze" /><g transform="rotate(0)"><animateTransform repeatCount="indefinite" type="rotate" attributeName="transform" dur="5s" begin="0s" calcMode="spline" values="0; 0; 0; 0; 0; 0" keyTimes="0; 0.1; 0.193334; 0.506667; 0.673333; 1" keySplines="0 0 1 1; 0 0 1 1; 0 0 1 1; 0 0 1 1; 0 0 1 1" fill="freeze" /><g transform="scale(0.313,0.313)"><animateTransform repeatCount="indefinite" type="scale" attributeName="transform" dur="5s" begin="0s" calcMode="spline" values="0.313 0.313; 0.914 0.914; 0.914 0.914; 0.914 0.914; 0.914 0.914; 1.012 1.012; 1.012 1.012" keyTimes="0; 0.1; 0.193334; 0.506667; 0.673333; 0.72; 1" keySplines="0 0 1 1; 0 0 1 1; 0 0 1 1; 0 0 1 1; 0 0 1 1; 0 0 1 1" fill="freeze" /><g transform="translate(-265.41,-281.26)"><g id="i11" transform="matrix(1,0,0,1,0,0)"><path fill="#ffffff" fill-opacity="0" d="M386.06,273.05C386.06,273.05,298.39,422.64,298.39,422.64C298.39,422.64,144.76,422.58,144.76,422.58C144.76,422.58,309.23,139.88,309.23,139.88C309.23,139.88,386.06,273.05,386.06,273.05Z"><animate repeatCount="indefinite" attributeName="fill-opacity" dur="5s" begin="0s" fill="freeze" values="0; 1; 1; 1; 1; 1; 0; 0" keyTimes="0; 0.1; 0.193333; 0.506667; 0.673333; 0.72; 0.766667; 1" keySplines="0 0 1 1; 0 0 1 1; 0 0 1 1; 0 0 1 1; 0 0 1 1; 0 0 1 1; 0 0 1 1" calcMode="spline" /></path></g></g></g></g></g></g><g transform="matrix(0.914,0,0,0.914,40.438,38.962)" id="i12"><g id="i13" transform="matrix(1,0,0,1,0,0)"><path stroke-linecap="round" stroke-width="16" stroke-opacity="0" stroke="#ffffff" d="M673.63,424.19C673.63,424.19,745.55,424.19,745.55,424.19C745.55,424.19,817.47,424.19,817.47,424.19"><animate repeatCount="indefinite" attributeName="stroke-opacity" dur="5s" begin="0s" fill="freeze" values="0; 0; 1; 0.99; 0.99; 0; 0" keyTimes="0; 0.08; 0.166666; 0.506667; 0.693333; 0.866667; 1" keySplines="0 0 1 1; 0 0 1 1; 0 0 1 1; 0 0 1 1; 0 0 1 1; 0 0 1 1" calcMode="spline" /></path></g></g><g transform="matrix(0.914,0,0,0.914,41.359,37.031)" id="i14"><g id="i15" transform="matrix(1,0,0,1,0,0)"><path stroke-linecap="round" stroke-width="16" stroke-opacity="0" stroke="#ffffff" d="M688.37,196.41C688.37,196.41,820.3,424.91,820.3,424.91"><animate repeatCount="indefinite" attributeName="stroke-opacity" dur="5s" begin="0s" fill="freeze" values="0; 1; 0.99; 0.99; 0; 0" keyTimes="0; 0.08; 0.506666; 0.693333; 0.866667; 1" keySplines="0 0 1 1; 0 0 1 1; 0 0 1 1; 0 0 1 1; 0 0 1 1" calcMode="spline" /></path></g></g><g transform="matrix(0.914,0,0,0.914,41.359,37.031)" id="i16"><g id="i17" transform="matrix(1,0,0,1,0,0)"><path stroke-linecap="round" stroke-width="11" stroke-opacity="0" stroke="#ffffff" d="M788.81,487.13C788.81,487.13,822.51,428.75,822.51,428.75"><animate repeatCount="indefinite" attributeName="stroke-opacity" dur="5s" begin="0s" fill="freeze" values="0; 0; 1; 0.99; 0.99; 0; 0" keyTimes="0; 0.166667; 0.273333; 0.506666; 0.693333; 0.866667; 1" keySplines="0 0 1 1; 0 0 1 1; 0 0 1 1; 0 0 1 1; 0 0 1 1; 0 0 1 1" calcMode="spline" /></path></g></g></svg>