<svg width="512" height="512" viewBox="0 0 512 512" fill="none" xmlns="http://www.w3.org/2000/svg">
<circle cx="256" cy="256" r="256" fill="#3D3D3D"/>
<path fill-rule="evenodd" clip-rule="evenodd" d="M396.075 56.8604C396.075 63.0428 394.123 68.771 390.799 73.4674L480.247 227.748C481.159 227.661 482.084 227.618 483.019 227.618C499.025 227.618 512 240.539 512 256.478C512 272.417 499.025 285.338 483.019 285.338C482.079 285.338 481.151 285.294 480.234 285.207L390.793 439.479C394.121 444.177 396.075 449.909 396.075 456.095C396.075 472.035 383.1 484.956 367.094 484.956C353.84 484.956 342.663 476.095 339.213 463.996C339.232 464.066 339.252 464.135 339.273 464.204H271.056L263.527 453.341H248.47L240.941 464.204L177.558 464.203C174.039 476.195 162.915 484.956 149.736 484.956C133.73 484.956 120.755 472.035 120.755 456.095C120.755 451.613 121.781 447.368 123.613 443.583L123.6 443.609L31.7619 285.207C30.8467 285.294 29.9192 285.338 28.9811 285.338C12.9753 285.338 0 272.417 0 256.478C0 240.539 12.9753 227.618 28.9811 227.618C29.9157 227.618 30.8399 227.661 31.7518 227.748L123.595 69.3352C121.774 65.5595 120.755 61.3285 120.755 56.8604C120.755 40.9212 133.73 28 149.736 28C162.907 28 174.026 36.7501 177.551 48.7314L240.941 48.7305L248.47 59.5934L263.527 59.5934L271.056 48.7305L339.279 48.7305C339.256 48.8067 339.234 48.883 339.213 48.9595C342.663 36.8613 353.84 28 367.094 28C383.1 28 396.075 40.9212 396.075 56.8604ZM381.585 56.8604C381.585 64.8299 375.097 71.2905 367.094 71.2905C359.091 71.2905 352.604 64.8299 352.604 56.8604C352.604 48.8908 359.091 42.4302 367.094 42.4302C375.097 42.4302 381.585 48.8908 381.585 56.8604ZM177.406 65.4688C173.728 77.2034 162.731 85.7207 149.736 85.7207C145.05 85.7207 140.624 84.6133 136.708 82.647L73.0732 192.407L68.487 192.407L44.8942 232.353V232.353C52.7663 237.513 57.9623 246.391 57.9623 256.478C57.9623 266.544 52.7874 275.406 44.9425 280.571L66.4498 316.985L71.0188 316.985L136.717 430.304C140.631 428.341 145.054 427.235 149.736 427.235C162.723 427.235 173.715 435.742 177.399 447.466H242.955L249.832 436.603L263.588 436.603L270.465 447.466L339.431 447.466C343.115 435.742 354.107 427.235 367.094 427.235C371.055 427.235 374.83 428.026 378.269 429.459C377.98 429.338 377.689 429.222 377.395 429.111L442.402 316.985H447.316L468.349 281.373C459.786 276.358 454.038 267.086 454.038 256.478C454.038 245.52 460.171 235.988 469.205 231.101C468.933 231.248 468.665 231.398 468.399 231.553L445.279 192.407H440.347L377.405 83.8408C374.201 85.0554 370.726 85.7207 367.094 85.7207C354.099 85.7207 343.102 77.2035 339.424 65.4688L270.465 65.4688L263.588 76.3317L249.832 76.3317L242.955 65.4688L177.406 65.4688ZM43.4717 256.478C43.4717 264.447 36.9841 270.908 28.9811 270.908C20.9782 270.908 14.4906 264.447 14.4906 256.478C14.4906 248.508 20.9782 242.048 28.9811 242.048C36.9841 242.048 43.4717 248.508 43.4717 256.478ZM149.736 470.526C157.739 470.526 164.226 464.065 164.226 456.095C164.226 448.126 157.739 441.665 149.736 441.665C141.733 441.665 135.245 448.126 135.245 456.095C135.245 464.065 141.733 470.526 149.736 470.526ZM367.094 470.526C375.097 470.526 381.585 464.065 381.585 456.095C381.585 448.126 375.097 441.665 367.094 441.665C359.091 441.665 352.604 448.126 352.604 456.095C352.604 464.065 359.091 470.526 367.094 470.526ZM483.019 270.908C491.022 270.908 497.509 264.447 497.509 256.478C497.509 248.508 491.022 242.048 483.019 242.048C475.016 242.048 468.528 248.508 468.528 256.478C468.528 264.447 475.016 270.908 483.019 270.908ZM164.226 56.8604C164.226 64.8299 157.739 71.2905 149.736 71.2905C141.733 71.2905 135.245 64.8299 135.245 56.8604C135.245 48.8908 141.733 42.4302 149.736 42.4302C157.739 42.4302 164.226 48.8908 164.226 56.8604Z" fill="white"/>
<g filter="url(#filter0_d_318_2763)">
<path d="M218.429 191.306L181 255.867L218.429 320.426H293.29L330.719 255.867L293.29 191.306H218.429ZM226.116 202.867H286.588L316.823 255.017L286.588 307.169H226.116L195.881 255.017L226.116 202.867Z" fill="white"/>
</g>
<path d="M304.75 171.625L209.145 171.747L168.186 100.75H345.875L304.75 171.625Z" fill="white"/>
<path d="M158.3 257.161L205.722 338.766L164.719 409.84L76.4729 257.126L158.3 257.161Z" fill="white"/>
<path d="M345.625 411.625H168.019L208.907 340.75H304.625L345.625 411.625Z" fill="white"/>
<path d="M205.899 173.627L159.143 253.41L77.2036 253.376L164.924 102.6L205.899 173.627Z" fill="white"/>
<line x1="363" y1="250.5" x2="432.25" y2="250.5" stroke="white" stroke-width="16" stroke-linecap="round"/>
<path d="M367.13 132.75L437.492 254.618" stroke="white" stroke-width="16" stroke-linecap="round"/>
<path d="M420.698 287.8L438.672 256.668" stroke="white" stroke-width="11" stroke-linecap="round"/>
<defs>
<filter id="filter0_d_318_2763" x="135" y="149.306" width="241.719" height="221.12" filterUnits="userSpaceOnUse" color-interpolation-filters="sRGB">
<feFlood flood-opacity="0" result="BackgroundImageFix"/>
<feColorMatrix in="SourceAlpha" type="matrix" values="0 0 0 0 0 0 0 0 0 0 0 0 0 0 0 0 0 0 127 0" result="hardAlpha"/>
<feOffset dy="4"/>
<feGaussianBlur stdDeviation="23"/>
<feComposite in2="hardAlpha" operator="out"/>
<feColorMatrix type="matrix" values="0 0 0 0 0 0 0 0 0 0 0 0 0 0 0 0 0 0 0.25 0"/>
<feBlend mode="normal" in2="BackgroundImageFix" result="effect1_dropShadow_318_2763"/>
<feBlend mode="normal" in="SourceGraphic" in2="effect1_dropShadow_318_2763" result="shape"/>
</filter>
</defs>
</svg>
