<svg width="960" height="857" viewBox="0 0 960 857" fill="none" xmlns="http://www.w3.org/2000/svg">
<path fill-rule="evenodd" clip-rule="evenodd" d="M742.641 54.1132C742.641 65.7053 738.981 76.4455 732.749 85.2514L900.463 374.527C902.174 374.365 903.907 374.283 905.66 374.283C935.671 374.283 960 398.51 960 428.396C960 458.282 935.671 482.509 905.66 482.509C903.899 482.509 902.157 482.426 900.439 482.262L732.736 771.522C738.976 780.332 742.641 791.079 742.641 802.679C742.641 832.565 718.313 856.792 688.302 856.792C663.449 856.792 642.493 840.177 636.024 817.493C636.061 817.623 636.098 817.753 636.136 817.883H508.23L494.113 797.515H465.881L451.765 817.883L332.92 817.881C326.324 840.366 305.466 856.792 280.755 856.792C250.744 856.792 226.415 832.565 226.415 802.679C226.415 794.274 228.34 786.316 231.774 779.219L231.75 779.267L59.5536 482.263C57.8376 482.426 56.0984 482.509 54.3396 482.509C24.3287 482.509 0 458.282 0 428.396C0 398.51 24.3287 374.283 54.3396 374.283C56.0919 374.283 57.8247 374.365 59.5346 374.527L231.74 77.5035C228.327 70.4241 226.415 62.491 226.415 54.1132C226.415 24.2273 250.744 0 280.755 0C305.451 0 326.299 16.4064 332.909 38.8713L451.765 38.8696L465.881 59.2376L494.113 59.2376L508.23 38.8697L636.148 38.8697C636.106 39.0125 636.065 39.1557 636.024 39.299C642.493 16.6149 663.449 0 688.302 0C718.313 0 742.641 24.2273 742.641 54.1132ZM715.472 54.1132C715.472 69.0561 703.307 81.1698 688.302 81.1698C673.296 81.1698 661.132 69.0561 661.132 54.1132C661.132 39.1702 673.296 27.0566 688.302 27.0566C703.307 27.0566 715.472 39.1702 715.472 54.1132ZM332.636 70.254C325.74 92.2565 305.12 108.226 280.755 108.226C271.969 108.226 263.67 106.15 256.327 102.463L137.012 308.262L128.413 308.262L84.1767 383.163C98.9368 392.837 108.679 409.484 108.679 428.396C108.679 447.27 98.9764 463.887 84.2672 473.57L124.593 541.846H133.16L256.344 754.32C263.684 750.638 271.976 748.566 280.755 748.566C305.106 748.566 325.716 764.516 332.623 786.498H455.541L468.435 766.13L494.228 766.13L507.123 786.498L636.433 786.498C643.341 764.516 663.951 748.566 688.302 748.566C695.728 748.566 702.806 750.049 709.254 752.735C708.712 752.509 708.166 752.292 707.615 752.083L829.503 541.846H838.717L878.155 475.075C862.098 465.671 851.321 448.287 851.321 428.396C851.321 407.85 862.82 389.978 879.759 380.814C879.25 381.089 878.746 381.372 878.248 381.663L834.897 308.262H825.651L707.634 104.701C701.628 106.979 695.111 108.226 688.302 108.226C663.936 108.226 643.316 92.2566 636.421 70.2541L507.123 70.2541L494.228 90.6219L468.435 90.6219L455.541 70.254L332.636 70.254ZM81.5094 428.396C81.5094 443.339 69.3451 455.453 54.3396 455.453C39.3341 455.453 27.1698 443.339 27.1698 428.396C27.1698 413.453 39.3341 401.339 54.3396 401.339C69.3451 401.339 81.5094 413.453 81.5094 428.396ZM280.755 829.736C295.76 829.736 307.925 817.622 307.925 802.679C307.925 787.736 295.76 775.622 280.755 775.622C265.749 775.622 253.585 787.736 253.585 802.679C253.585 817.622 265.749 829.736 280.755 829.736ZM688.302 829.736C703.307 829.736 715.472 817.622 715.472 802.679C715.472 787.736 703.307 775.622 688.302 775.622C673.296 775.622 661.132 787.736 661.132 802.679C661.132 817.622 673.296 829.736 688.302 829.736ZM905.66 455.453C920.666 455.453 932.83 443.339 932.83 428.396C932.83 413.453 920.666 401.339 905.66 401.339C890.655 401.339 878.491 413.453 878.491 428.396C878.491 443.339 890.655 455.453 905.66 455.453ZM307.925 54.1132C307.925 69.0561 295.76 81.1698 280.755 81.1698C265.749 81.1698 253.585 69.0561 253.585 54.1132C253.585 39.1702 265.749 27.0566 280.755 27.0566C295.76 27.0566 307.925 39.1702 307.925 54.1132Z" fill="white"/>
<path d="M409.555 306.197L339.375 427.249L409.555 548.298H549.919L620.099 427.249L549.919 306.197H409.555ZM423.967 327.875H537.353L594.042 425.657L537.353 523.441H423.967L367.277 425.657L423.967 327.875Z" fill="white"/>
<path d="M571.406 269.297L392.146 269.526L315.348 136.406H648.515L571.406 269.297Z" fill="white"/>
<path d="M296.811 429.676L385.728 582.686L308.847 715.95L143.386 429.612L296.811 429.676Z" fill="white"/>
<path d="M648.046 719.297H315.036L391.701 586.406H571.171L648.046 719.297Z" fill="white"/>
<path d="M386.061 273.051L298.392 422.644L144.756 422.58L309.231 139.875L386.061 273.051Z" fill="white"/>
<line x1="673.625" y1="424.188" x2="817.469" y2="424.188" stroke="white" stroke-width="16" stroke-linecap="round"/>
<path d="M688.37 196.406L820.297 424.909" stroke="white" stroke-width="16" stroke-linecap="round"/>
<path d="M788.809 487.125L822.51 428.754" stroke="white" stroke-width="11" stroke-linecap="round"/>
</svg>
